<svg width="17" height="14" viewBox="0 0 17 14" fill="none" xmlns="http://www.w3.org/2000/svg">
<path fill-rule="evenodd" clip-rule="evenodd" d="M16.7869 6.45189C16.9234 6.59732 17 6.79446 17 7C17 7.20554 16.9234 7.40268 16.7869 7.54811L10.9581 13.7531C10.8914 13.8293 10.811 13.8905 10.7216 13.9329C10.6322 13.9752 10.5358 13.998 10.4379 13.9999C10.3401 14.0017 10.2429 13.9826 10.1522 13.9436C10.0615 13.9045 9.97907 13.8465 9.90988 13.7728C9.84069 13.6992 9.78615 13.6114 9.74951 13.5149C9.71286 13.4183 9.69486 13.3148 9.69659 13.2107C9.69832 13.1065 9.71973 13.0038 9.75955 12.9087C9.79937 12.8136 9.85679 12.7279 9.92837 12.6569L14.5137 7.77563L0.728599 7.77563C0.535362 7.77563 0.35004 7.69391 0.213401 7.54845C0.0767619 7.40299 -4.13476e-07 7.20571 -4.13476e-07 7C-4.13476e-07 6.79429 0.0767619 6.59701 0.213401 6.45155C0.35004 6.30609 0.535362 6.22437 0.728599 6.22437L14.5137 6.22437L9.92837 1.34309C9.85679 1.27208 9.79937 1.18645 9.75955 1.0913C9.71973 0.996162 9.69832 0.893455 9.69659 0.789311C9.69486 0.685167 9.71286 0.58172 9.74951 0.48514C9.78615 0.388561 9.84069 0.300828 9.90988 0.227176C9.97907 0.153524 10.0615 0.0954606 10.1522 0.0564506C10.2429 0.0174406 10.3401 -0.00171679 10.4379 0.000120711C10.5358 0.00195821 10.6322 0.0247529 10.7216 0.0671456C10.811 0.109538 10.8914 0.17066 10.9581 0.246865L16.7869 6.45189Z" fill="#222222"/>
</svg>
