<svg width="80" height="80" viewBox="0 0 80 80" fill="none" xmlns="http://www.w3.org/2000/svg">
<circle cx="40" cy="40" r="35" fill="white"/>
<g opacity="0.2">
<mask id="path-2-inside-1_8_1399" fill="white">
<path d="M80 40C80 62.0914 62.0914 80 40 80C17.9086 80 0 62.0914 0 40C0 17.9086 17.9086 0 40 0C62.0914 0 80 17.9086 80 40ZM5.2 40C5.2 59.2195 20.7805 74.8 40 74.8C59.2195 74.8 74.8 59.2195 74.8 40C74.8 20.7805 59.2195 5.2 40 5.2C20.7805 5.2 5.2 20.7805 5.2 40Z"/>
</mask>
<path d="M80 40C80 62.0914 62.0914 80 40 80C17.9086 80 0 62.0914 0 40C0 17.9086 17.9086 0 40 0C62.0914 0 80 17.9086 80 40ZM5.2 40C5.2 59.2195 20.7805 74.8 40 74.8C59.2195 74.8 74.8 59.2195 74.8 40C74.8 20.7805 59.2195 5.2 40 5.2C20.7805 5.2 5.2 20.7805 5.2 40Z" stroke="url(#paint0_linear_8_1399)" stroke-width="32" stroke-linecap="round" mask="url(#path-2-inside-1_8_1399)"/>
</g>
<mask id="path-3-inside-2_8_1399" fill="white">
<path d="M40 2.6C40 1.16406 41.1654 -0.00880257 42.5983 0.0844619C49.2862 0.519762 55.7727 2.63007 61.4528 6.23941C67.866 10.3146 72.9858 16.1321 76.213 23.0111C79.4402 29.8902 80.6413 37.5461 79.6757 45.0829C78.8206 51.7582 76.2971 58.0954 72.3568 63.5168C71.5126 64.6784 69.8657 64.8248 68.7614 63.907V63.907C67.6571 62.9891 67.5149 61.355 68.3478 60.1853C71.6628 55.5298 73.7883 50.1174 74.5179 44.4221C75.3579 37.8651 74.3129 31.2044 71.5053 25.2197C68.6976 19.2349 64.2434 14.1737 58.6639 10.6283C53.8178 7.54885 48.2969 5.72365 42.5977 5.29707C41.1657 5.18989 40 4.03594 40 2.6V2.6Z"/>
</mask>
<path d="M40 2.6C40 1.16406 41.1654 -0.00880257 42.5983 0.0844619C49.2862 0.519762 55.7727 2.63007 61.4528 6.23941C67.866 10.3146 72.9858 16.1321 76.213 23.0111C79.4402 29.8902 80.6413 37.5461 79.6757 45.0829C78.8206 51.7582 76.2971 58.0954 72.3568 63.5168C71.5126 64.6784 69.8657 64.8248 68.7614 63.907V63.907C67.6571 62.9891 67.5149 61.355 68.3478 60.1853C71.6628 55.5298 73.7883 50.1174 74.5179 44.4221C75.3579 37.8651 74.3129 31.2044 71.5053 25.2197C68.6976 19.2349 64.2434 14.1737 58.6639 10.6283C53.8178 7.54885 48.2969 5.72365 42.5977 5.29707C41.1657 5.18989 40 4.03594 40 2.6V2.6Z" stroke="url(#paint1_linear_8_1399)" stroke-width="32" stroke-linecap="round" mask="url(#path-3-inside-2_8_1399)"/>
<defs>
<linearGradient id="paint0_linear_8_1399" x1="68.1159" y1="10.7246" x2="13.4783" y2="69.7101" gradientUnits="userSpaceOnUse">
<stop stop-color="#FF9A01"/>
<stop offset="1" stop-color="#FFE5BF"/>
</linearGradient>
<linearGradient id="paint1_linear_8_1399" x1="68.1159" y1="10.7246" x2="13.4783" y2="69.7101" gradientUnits="userSpaceOnUse">
<stop stop-color="#FF9A01"/>
<stop offset="1" stop-color="#FFE5BF"/>
</linearGradient>
</defs>
</svg>
