<svg width="80" height="80" viewBox="0 0 80 80" fill="none" xmlns="http://www.w3.org/2000/svg">
<circle cx="40" cy="40" r="35" fill="white"/>
<g opacity="0.2">
<mask id="path-2-inside-1_8_1403" fill="white">
<path d="M80 40C80 62.0914 62.0914 80 40 80C17.9086 80 0 62.0914 0 40C0 17.9086 17.9086 0 40 0C62.0914 0 80 17.9086 80 40ZM5.2 40C5.2 59.2195 20.7805 74.8 40 74.8C59.2195 74.8 74.8 59.2195 74.8 40C74.8 20.7805 59.2195 5.2 40 5.2C20.7805 5.2 5.2 20.7805 5.2 40Z"/>
</mask>
<path d="M80 40C80 62.0914 62.0914 80 40 80C17.9086 80 0 62.0914 0 40C0 17.9086 17.9086 0 40 0C62.0914 0 80 17.9086 80 40ZM5.2 40C5.2 59.2195 20.7805 74.8 40 74.8C59.2195 74.8 74.8 59.2195 74.8 40C74.8 20.7805 59.2195 5.2 40 5.2C20.7805 5.2 5.2 20.7805 5.2 40Z" stroke="url(#paint0_linear_8_1403)" stroke-width="32" stroke-linecap="round" mask="url(#path-2-inside-1_8_1403)"/>
</g>
<mask id="path-3-inside-2_8_1403" fill="white">
<path d="M40 2.6C40 1.16406 41.1654 -0.00880826 42.5983 0.0844325C51.1878 0.643363 59.3946 3.96195 65.9755 9.58171C73.2174 15.7659 78.0153 24.3308 79.5065 33.7364C80.9978 43.1419 79.0844 52.7709 74.1106 60.8918C69.5907 68.2716 62.8129 73.9659 54.8175 77.1544C53.4837 77.6863 52.0127 76.9314 51.5685 75.5659V75.5659C51.1243 74.2003 51.8761 72.7424 53.2046 72.1975C60.0243 69.4009 65.8031 64.4996 69.6762 58.1759C74.0034 51.1107 75.6681 42.7335 74.3707 34.5506C73.0733 26.3678 68.8991 18.9163 62.5987 13.5361C56.9595 8.72051 49.9481 5.84711 42.5978 5.29705C41.1658 5.18989 40 4.03594 40 2.6V2.6Z"/>
</mask>
<path d="M40 2.6C40 1.16406 41.1654 -0.00880826 42.5983 0.0844325C51.1878 0.643363 59.3946 3.96195 65.9755 9.58171C73.2174 15.7659 78.0153 24.3308 79.5065 33.7364C80.9978 43.1419 79.0844 52.7709 74.1106 60.8918C69.5907 68.2716 62.8129 73.9659 54.8175 77.1544C53.4837 77.6863 52.0127 76.9314 51.5685 75.5659V75.5659C51.1243 74.2003 51.8761 72.7424 53.2046 72.1975C60.0243 69.4009 65.8031 64.4996 69.6762 58.1759C74.0034 51.1107 75.6681 42.7335 74.3707 34.5506C73.0733 26.3678 68.8991 18.9163 62.5987 13.5361C56.9595 8.72051 49.9481 5.84711 42.5978 5.29705C41.1658 5.18989 40 4.03594 40 2.6V2.6Z" stroke="url(#paint1_linear_8_1403)" stroke-width="32" stroke-linecap="round" mask="url(#path-3-inside-2_8_1403)"/>
<defs>
<linearGradient id="paint0_linear_8_1403" x1="68.1159" y1="10.7246" x2="13.4783" y2="69.7101" gradientUnits="userSpaceOnUse">
<stop stop-color="#FF9A01"/>
<stop offset="1" stop-color="#FFE5BF"/>
</linearGradient>
<linearGradient id="paint1_linear_8_1403" x1="68.1159" y1="10.7246" x2="13.4783" y2="69.7101" gradientUnits="userSpaceOnUse">
<stop stop-color="#FF9A01"/>
<stop offset="1" stop-color="#FFE5BF"/>
</linearGradient>
</defs>
</svg>
