<svg width="80" height="80" viewBox="0 0 80 80" fill="none" xmlns="http://www.w3.org/2000/svg">
<circle cx="40" cy="40" r="35" fill="white"/>
<g opacity="0.2">
<mask id="path-2-inside-1_8_1411" fill="white">
<path d="M80 40C80 62.0914 62.0914 80 40 80C17.9086 80 0 62.0914 0 40C0 17.9086 17.9086 0 40 0C62.0914 0 80 17.9086 80 40ZM5.2 40C5.2 59.2195 20.7805 74.8 40 74.8C59.2195 74.8 74.8 59.2195 74.8 40C74.8 20.7805 59.2195 5.2 40 5.2C20.7805 5.2 5.2 20.7805 5.2 40Z"/>
</mask>
<path d="M80 40C80 62.0914 62.0914 80 40 80C17.9086 80 0 62.0914 0 40C0 17.9086 17.9086 0 40 0C62.0914 0 80 17.9086 80 40ZM5.2 40C5.2 59.2195 20.7805 74.8 40 74.8C59.2195 74.8 74.8 59.2195 74.8 40C74.8 20.7805 59.2195 5.2 40 5.2C20.7805 5.2 5.2 20.7805 5.2 40Z" stroke="url(#paint0_linear_8_1411)" stroke-width="32" stroke-linecap="round" mask="url(#path-2-inside-1_8_1411)"/>
</g>
<mask id="path-3-inside-2_8_1411" fill="white">
<path d="M40 2.6C40 1.16406 41.1653 -0.00880332 42.5982 0.0844622C48.7453 0.484564 54.7295 2.30017 60.0776 5.40389C66.1768 8.9435 71.2318 14.0326 74.7303 20.1555C78.2288 26.2783 80.0465 33.2172 79.9991 40.2689C79.9517 47.3206 78.0409 54.2345 74.4604 60.3097C70.8798 66.3849 65.7568 71.4056 59.6106 74.8629C53.4644 78.3202 46.5134 80.0912 39.4622 79.9964C32.411 79.9016 25.5101 77.9443 19.4591 74.323C14.1532 71.1477 9.66611 66.7919 6.33848 61.6079C5.56279 60.3995 6.0244 58.8119 7.28063 58.1164V58.1164C8.53686 57.4208 10.1111 57.8817 10.8985 59.0825C13.774 63.4679 17.6104 67.1566 22.1294 69.861C27.3938 73.0116 33.3975 74.7144 39.5321 74.7969C45.6667 74.8793 51.714 73.3386 57.0612 70.3307C62.4084 67.3229 66.8654 62.9549 69.9805 57.6694C73.0956 52.384 74.758 46.3689 74.7992 40.2339C74.8405 34.099 73.2591 28.0621 70.2154 22.7352C67.1716 17.4084 62.7738 12.9808 57.4675 9.90138C52.9125 7.25794 47.8271 5.68851 42.5977 5.29708C41.1657 5.1899 40 4.03594 40 2.6V2.6Z"/>
</mask>
<path d="M40 2.6C40 1.16406 41.1653 -0.00880332 42.5982 0.0844622C48.7453 0.484564 54.7295 2.30017 60.0776 5.40389C66.1768 8.9435 71.2318 14.0326 74.7303 20.1555C78.2288 26.2783 80.0465 33.2172 79.9991 40.2689C79.9517 47.3206 78.0409 54.2345 74.4604 60.3097C70.8798 66.3849 65.7568 71.4056 59.6106 74.8629C53.4644 78.3202 46.5134 80.0912 39.4622 79.9964C32.411 79.9016 25.5101 77.9443 19.4591 74.323C14.1532 71.1477 9.66611 66.7919 6.33848 61.6079C5.56279 60.3995 6.0244 58.8119 7.28063 58.1164V58.1164C8.53686 57.4208 10.1111 57.8817 10.8985 59.0825C13.774 63.4679 17.6104 67.1566 22.1294 69.861C27.3938 73.0116 33.3975 74.7144 39.5321 74.7969C45.6667 74.8793 51.714 73.3386 57.0612 70.3307C62.4084 67.3229 66.8654 62.9549 69.9805 57.6694C73.0956 52.384 74.758 46.3689 74.7992 40.2339C74.8405 34.099 73.2591 28.0621 70.2154 22.7352C67.1716 17.4084 62.7738 12.9808 57.4675 9.90138C52.9125 7.25794 47.8271 5.68851 42.5977 5.29708C41.1657 5.1899 40 4.03594 40 2.6V2.6Z" stroke="url(#paint1_linear_8_1411)" stroke-width="32" stroke-linecap="round" mask="url(#path-3-inside-2_8_1411)"/>
<defs>
<linearGradient id="paint0_linear_8_1411" x1="68.1159" y1="10.7246" x2="13.4783" y2="69.7101" gradientUnits="userSpaceOnUse">
<stop stop-color="#FF9A01"/>
<stop offset="1" stop-color="#FFE5BF"/>
</linearGradient>
<linearGradient id="paint1_linear_8_1411" x1="68.1159" y1="10.7246" x2="13.4783" y2="69.7101" gradientUnits="userSpaceOnUse">
<stop stop-color="#FF9A01"/>
<stop offset="1" stop-color="#FFE5BF"/>
</linearGradient>
</defs>
</svg>
