<svg width="145" height="145" viewBox="0 0 145 145" fill="none" xmlns="http://www.w3.org/2000/svg">
<g opacity="0.2">
<mask id="path-1-inside-1_1_3418" fill="white">
<path d="M145 72.5C145 112.541 112.541 145 72.5 145C32.4594 145 0 112.541 0 72.5C0 32.4594 32.4594 0 72.5 0C112.541 0 145 32.4594 145 72.5ZM9.425 72.5C9.425 107.335 37.6646 135.575 72.5 135.575C107.335 135.575 135.575 107.335 135.575 72.5C135.575 37.6646 107.335 9.425 72.5 9.425C37.6646 9.425 9.425 37.6646 9.425 72.5Z"/>
</mask>
<path d="M145 72.5C145 112.541 112.541 145 72.5 145C32.4594 145 0 112.541 0 72.5C0 32.4594 32.4594 0 72.5 0C112.541 0 145 32.4594 145 72.5ZM9.425 72.5C9.425 107.335 37.6646 135.575 72.5 135.575C107.335 135.575 135.575 107.335 135.575 72.5C135.575 37.6646 107.335 9.425 72.5 9.425C37.6646 9.425 9.425 37.6646 9.425 72.5Z" stroke="url(#paint0_linear_1_3418)" stroke-width="32" stroke-linecap="round" mask="url(#path-1-inside-1_1_3418)"/>
</g>
<mask id="path-2-inside-2_1_3418" fill="white">
<path d="M72.5 4.7125C72.5 2.10986 74.6121 -0.0159538 77.2093 0.153095C87.5958 0.829153 97.7346 3.73541 106.927 8.69542C117.505 14.4027 126.497 22.6503 133.096 32.6959C139.695 42.7415 143.693 54.2701 144.73 66.2443C145.767 78.2185 143.811 90.2627 139.037 101.293C134.264 112.324 126.823 121.995 117.384 129.436C107.945 136.876 96.8049 141.854 84.9648 143.92C73.1247 145.987 60.9566 145.077 49.5553 141.273C39.6469 137.968 30.5879 132.566 22.985 125.458C21.0839 123.68 21.1877 120.685 23.085 118.904V118.904C24.9822 117.122 27.9532 117.23 29.8715 118.989C36.3924 124.969 44.1123 129.522 52.5381 132.333C62.4572 135.642 73.0435 136.434 83.3444 134.636C93.6452 132.838 103.338 128.508 111.549 122.034C119.761 115.56 126.235 107.147 130.387 97.5502C134.54 87.9536 136.242 77.4751 135.34 67.0575C134.438 56.6399 130.959 46.6101 125.219 37.8704C119.478 29.1307 111.654 21.9554 102.452 16.99C94.6345 12.7721 86.0308 10.2613 77.2082 9.60095C74.6128 9.40668 72.5 7.31514 72.5 4.7125V4.7125Z"/>
</mask>
<path d="M72.5 4.7125C72.5 2.10986 74.6121 -0.0159538 77.2093 0.153095C87.5958 0.829153 97.7346 3.73541 106.927 8.69542C117.505 14.4027 126.497 22.6503 133.096 32.6959C139.695 42.7415 143.693 54.2701 144.73 66.2443C145.767 78.2185 143.811 90.2627 139.037 101.293C134.264 112.324 126.823 121.995 117.384 129.436C107.945 136.876 96.8049 141.854 84.9648 143.92C73.1247 145.987 60.9566 145.077 49.5553 141.273C39.6469 137.968 30.5879 132.566 22.985 125.458C21.0839 123.68 21.1877 120.685 23.085 118.904V118.904C24.9822 117.122 27.9532 117.23 29.8715 118.989C36.3924 124.969 44.1123 129.522 52.5381 132.333C62.4572 135.642 73.0435 136.434 83.3444 134.636C93.6452 132.838 103.338 128.508 111.549 122.034C119.761 115.56 126.235 107.147 130.387 97.5502C134.54 87.9536 136.242 77.4751 135.34 67.0575C134.438 56.6399 130.959 46.6101 125.219 37.8704C119.478 29.1307 111.654 21.9554 102.452 16.99C94.6345 12.7721 86.0308 10.2613 77.2082 9.60095C74.6128 9.40668 72.5 7.31514 72.5 4.7125V4.7125Z" stroke="url(#paint1_linear_1_3418)" stroke-width="32" stroke-linecap="round" mask="url(#path-2-inside-2_1_3418)"/>
<defs>
<linearGradient id="paint0_linear_1_3418" x1="123.46" y1="19.4384" x2="24.4293" y2="126.35" gradientUnits="userSpaceOnUse">
<stop stop-color="#DC7B6E"/>
<stop offset="1" stop-color="#FFCCBC"/>
</linearGradient>
<linearGradient id="paint1_linear_1_3418" x1="123.46" y1="19.4384" x2="24.4293" y2="126.35" gradientUnits="userSpaceOnUse">
<stop stop-color="#DC7B6E"/>
<stop offset="1" stop-color="#FFCCBC"/>
</linearGradient>
</defs>
</svg>
