<svg width="80" height="64" viewBox="0 0 80 64" fill="none" xmlns="http://www.w3.org/2000/svg">
<g clip-path="url(#clip0_5_1078)">
<path d="M18 0C20.6522 0 23.1957 1.05357 25.0711 2.92893C26.9464 4.8043 28 7.34784 28 10C28 12.6522 26.9464 15.1957 25.0711 17.0711C23.1957 18.9464 20.6522 20 18 20C15.3478 20 12.8043 18.9464 10.9289 17.0711C9.05357 15.1957 8 12.6522 8 10C8 7.34784 9.05357 4.8043 10.9289 2.92893C12.8043 1.05357 15.3478 0 18 0ZM64 0C66.6522 0 69.1957 1.05357 71.0711 2.92893C72.9464 4.8043 74 7.34784 74 10C74 12.6522 72.9464 15.1957 71.0711 17.0711C69.1957 18.9464 66.6522 20 64 20C61.3478 20 58.8043 18.9464 56.9289 17.0711C55.0536 15.1957 54 12.6522 54 10C54 7.34784 55.0536 4.8043 56.9289 2.92893C58.8043 1.05357 61.3478 0 64 0ZM0 37.3375C0 29.975 5.975 24 13.3375 24H18.675C20.6625 24 22.55 24.4375 24.25 25.2125C24.0875 26.1125 24.0125 27.05 24.0125 28C24.0125 32.775 26.1125 37.0625 29.425 40C29.4 40 29.375 40 29.3375 40H2.6625C1.2 40 0 38.8 0 37.3375ZM50.6625 40C50.6375 40 50.6125 40 50.575 40C53.9 37.0625 55.9875 32.775 55.9875 28C55.9875 27.05 55.9 26.125 55.75 25.2125C57.45 24.425 59.3375 24 61.325 24H66.6625C74.025 24 80 29.975 80 37.3375C80 38.8125 78.8 40 77.3375 40H50.6625ZM28 28C28 24.8174 29.2643 21.7652 31.5147 19.5147C33.7652 17.2643 36.8174 16 40 16C43.1826 16 46.2348 17.2643 48.4853 19.5147C50.7357 21.7652 52 24.8174 52 28C52 31.1826 50.7357 34.2348 48.4853 36.4853C46.2348 38.7357 43.1826 40 40 40C36.8174 40 33.7652 38.7357 31.5147 36.4853C29.2643 34.2348 28 31.1826 28 28ZM16 60.6625C16 51.4625 23.4625 44 32.6625 44H47.3375C56.5375 44 64 51.4625 64 60.6625C64 62.5 62.5125 64 60.6625 64H19.3375C17.5 64 16 62.5125 16 60.6625Z" fill="#FF9900"/>
</g>
<defs>
<clipPath id="clip0_5_1078">
<rect width="80" height="64" fill="white"/>
</clipPath>
</defs>
</svg>
