<svg width="140" height="72" viewBox="0 0 140 72" fill="none" xmlns="http://www.w3.org/2000/svg">
<g clip-path="url(#clip0_5_1084)">
<path d="M96.266 30.6361C97.3829 31.4764 98.9114 31.9514 100.127 31.2498L113.31 23.6383C114.526 22.9366 114.878 21.3753 114.709 19.9879C114.408 17.5471 115.572 15.0437 117.844 13.7316C120.879 11.9793 124.75 13.0065 126.494 16.0268C127.693 18.1042 127.571 20.5889 126.387 22.5025C126.215 22.7751 126.192 23.1162 126.354 23.3964C126.516 23.6765 126.823 23.8274 127.145 23.8145C129.394 23.746 131.607 24.8829 132.806 26.9602C134.55 29.9806 133.504 33.8461 130.469 35.5984C128.196 36.9105 125.446 36.6669 123.483 35.1854C122.367 34.3451 120.838 33.87 119.623 34.5717L106.439 42.1832C105.224 42.8848 104.871 44.4461 105.04 45.8335C105.342 48.2744 104.178 50.7777 101.905 52.0899C98.8701 53.8421 94.9995 52.815 93.2557 49.7946C92.0564 47.7173 92.1781 45.2325 93.3621 43.3189C93.5344 43.0464 93.5571 42.7052 93.3954 42.4251C93.2336 42.1449 92.9268 41.994 92.6046 42.0069C90.3554 42.0755 88.1427 40.9386 86.9433 38.8612C85.1995 35.8409 86.2453 31.9753 89.2802 30.2231C91.553 28.9109 94.3029 29.1546 96.266 30.6361Z" fill="#FF9900"/>
</g>
<g clip-path="url(#clip1_5_1084)">
<path d="M42.9997 22.0139L46.208 2.75C46.4719 1.16667 47.8469 0 49.458 0C50.4997 0 51.4719 0.486111 52.0969 1.31944L54.4441 4.44444H61.6803C63.4441 4.44444 65.1386 5.15278 66.3886 6.40278L68.8886 8.88889H76.6664C78.5136 8.88889 79.9997 10.375 79.9997 12.2222V15.5556C79.9997 21.6944 75.0275 26.6667 68.8886 26.6667H64.4441H62.2219H59.2636L58.5553 30.9028L42.9997 22.0139ZM57.7775 35.5694V66.6667C57.7775 69.125 55.7914 71.1111 53.333 71.1111H48.8886C46.4303 71.1111 44.4441 69.125 44.4441 66.6667V50.6667C41.1108 52.375 37.333 53.3333 33.333 53.3333C29.333 53.3333 25.5552 52.375 22.2219 50.6667V66.6667C22.2219 69.125 20.2358 71.1111 17.7775 71.1111H13.333C10.8747 71.1111 8.88858 69.125 8.88858 66.6667V34.6944C4.88858 33.1806 1.74969 29.7917 0.66636 25.4583L0.138582 23.3056C-0.45864 20.9306 0.985804 18.5139 3.37469 17.9167C5.76358 17.3194 8.16636 18.7639 8.76358 21.1528L9.30525 23.3056C9.79136 25.2778 11.5691 26.6667 13.6108 26.6667H17.7775H19.9997H42.1941L57.7775 35.5694ZM64.4441 11.1111C64.4441 10.5217 64.21 9.95651 63.7933 9.53976C63.3765 9.12302 62.8113 8.88889 62.2219 8.88889C61.6325 8.88889 61.0673 9.12302 60.6506 9.53976C60.2338 9.95651 59.9997 10.5217 59.9997 11.1111C59.9997 11.7005 60.2338 12.2657 60.6506 12.6825C61.0673 13.0992 61.6325 13.3333 62.2219 13.3333C62.8113 13.3333 63.3765 13.0992 63.7933 12.6825C64.21 12.2657 64.4441 11.7005 64.4441 11.1111Z" fill="#FF9900"/>
</g>
<defs>
<clipPath id="clip0_5_1084">
<rect width="45.6688" height="40.3993" fill="white" transform="translate(80 26.8345) rotate(-30)"/>
</clipPath>
<clipPath id="clip1_5_1084">
<rect width="80" height="71.1111" fill="white"/>
</clipPath>
</defs>
</svg>
