<svg width="80" height="64" viewBox="0 0 80 64" fill="none" xmlns="http://www.w3.org/2000/svg">
<g clip-path="url(#clip0_5_1070)">
<path d="M20 8C20 3.5875 23.5875 0 28 0H72C76.4125 0 80 3.5875 80 8V44C80 48.4125 76.4125 52 72 52H42.1C40.625 48.8125 38.3625 46.0625 35.55 44H48V40C48 37.7875 49.7875 36 52 36H60C62.2125 36 64 37.7875 64 40V44H72V8H28V14.1375C25.65 12.775 22.9125 12 20 12V8ZM20 16C21.5759 16 23.1363 16.3104 24.5922 16.9134C26.0481 17.5165 27.371 18.4004 28.4853 19.5147C29.5996 20.629 30.4835 21.9519 31.0866 23.4078C31.6896 24.8637 32 26.4241 32 28C32 29.5759 31.6896 31.1363 31.0866 32.5922C30.4835 34.0481 29.5996 35.371 28.4853 36.4853C27.371 37.5996 26.0481 38.4835 24.5922 39.0866C23.1363 39.6896 21.5759 40 20 40C18.4241 40 16.8637 39.6896 15.4078 39.0866C13.9519 38.4835 12.629 37.5996 11.5147 36.4853C10.4004 35.371 9.5165 34.0481 8.91345 32.5922C8.31039 31.1363 8 29.5759 8 28C8 26.4241 8.31039 24.8637 8.91345 23.4078C9.5165 21.9519 10.4004 20.629 11.5147 19.5147C12.629 18.4004 13.9519 17.5165 15.4078 16.9134C16.8637 16.3104 18.4241 16 20 16ZM16.6625 44H23.325C32.5375 44 40 51.4625 40 60.6625C40 62.5 38.5125 64 36.6625 64H3.3375C1.4875 64 0 62.5125 0 60.6625C0 51.4625 7.4625 44 16.6625 44Z" fill="#FF9900"/>
</g>
<defs>
<clipPath id="clip0_5_1070">
<rect width="80" height="64" fill="white"/>
</clipPath>
</defs>
</svg>
