<svg width="80" height="72" viewBox="0 0 80 72" fill="none" xmlns="http://www.w3.org/2000/svg">
<g clip-path="url(#clip0_5_1076)">
<path d="M0 3.33333C0 1.48611 1.48611 0 3.33333 0H9.65278C12.7083 0 15.4167 1.77778 16.6806 4.44444H73.7639C77.4167 4.44444 80.0833 7.91667 79.125 11.4444L73.4306 32.5972C72.25 36.9583 68.2917 40 63.7778 40H23.7083L24.4583 43.9583C24.7639 45.5278 26.1389 46.6667 27.7361 46.6667H67.7778C69.625 46.6667 71.1111 48.1528 71.1111 50C71.1111 51.8472 69.625 53.3333 67.7778 53.3333H27.7361C22.9306 53.3333 18.8056 49.9167 17.9167 45.2083L10.75 7.56944C10.6528 7.04167 10.1944 6.66667 9.65278 6.66667H3.33333C1.48611 6.66667 0 5.18056 0 3.33333ZM17.7778 64.4444C17.7778 63.569 17.9502 62.7021 18.2852 61.8932C18.6203 61.0844 19.1113 60.3495 19.7304 59.7304C20.3495 59.1113 21.0844 58.6203 21.8932 58.2852C22.7021 57.9502 23.569 57.7778 24.4444 57.7778C25.3199 57.7778 26.1868 57.9502 26.9957 58.2852C27.8045 58.6203 28.5394 59.1113 29.1585 59.7304C29.7775 60.3495 30.2686 61.0844 30.6036 61.8932C30.9387 62.7021 31.1111 63.569 31.1111 64.4444C31.1111 65.3199 30.9387 66.1868 30.6036 66.9957C30.2686 67.8045 29.7775 68.5394 29.1585 69.1585C28.5394 69.7776 27.8045 70.2686 26.9957 70.6036C26.1868 70.9387 25.3199 71.1111 24.4444 71.1111C23.569 71.1111 22.7021 70.9387 21.8932 70.6036C21.0844 70.2686 20.3495 69.7776 19.7304 69.1585C19.1113 68.5394 18.6203 67.8045 18.2852 66.9957C17.9502 66.1868 17.7778 65.3199 17.7778 64.4444ZM64.4444 57.7778C66.2126 57.7778 67.9083 58.4802 69.1585 59.7304C70.4087 60.9806 71.1111 62.6763 71.1111 64.4444C71.1111 66.2126 70.4087 67.9083 69.1585 69.1585C67.9083 70.4087 66.2126 71.1111 64.4444 71.1111C62.6763 71.1111 60.9806 70.4087 59.7304 69.1585C58.4802 67.9083 57.7778 66.2126 57.7778 64.4444C57.7778 62.6763 58.4802 60.9806 59.7304 59.7304C60.9806 58.4802 62.6763 57.7778 64.4444 57.7778Z" fill="#FF9900"/>
</g>
<defs>
<clipPath id="clip0_5_1076">
<rect width="80" height="71.1111" fill="white"/>
</clipPath>
</defs>
</svg>
