<svg width="30" height="30" viewBox="0 0 30 30" fill="none" xmlns="http://www.w3.org/2000/svg">
<path d="M21.0391 12.3578L22.9591 10.4382L26.032 13.5111L24.1286 15.4149" fill="#FFF9E9"/>
<path d="M15.8623 19.6628L16.8564 20.657L15.4131 21.1903L15.8623 19.6628Z" fill="#FF9900"/>
<path d="M9.30078 8.28125H20.5508M9.30078 11.6146H19.9674M9.30078 14.9479H16.4295M9.30078 18.2812H14.3866M9.30078 21.6146H13.5283" stroke="#FF9900" stroke-miterlimit="10" stroke-linecap="round" stroke-linejoin="round"/>
<path d="M15.8623 19.6628L16.8564 20.657L15.4131 21.1903L15.8623 19.6628Z" fill="#FF9900"/>
<path d="M24.2029 9.5776L24.8508 8.92969L27.54 11.6189L26.86 12.2989M16.7833 16.9972L19.4725 19.6864M16.9554 20.663L19.3154 19.8434L25.8112 13.3476L23.122 10.6584L16.6262 17.1543L15.8037 19.5172L16.9554 20.663Z" stroke="#FF9900" stroke-miterlimit="10" stroke-linecap="round" stroke-linejoin="round"/>
<path d="M15.8048 19.5117L15.2285 21.2404L16.9614 20.6604M21.3756 12.5654L23.9598 15.1496" stroke="#FF9900" stroke-miterlimit="10" stroke-linecap="round" stroke-linejoin="round"/>
<path d="M23.0508 18.4284V24.948H6.80078V4.948H23.0508V8.47133" stroke="#FF9900" stroke-miterlimit="10" stroke-linecap="round" stroke-linejoin="round"/>
</svg>
